<svg width="1920" height="2160" viewBox="0 0 1920 2160" fill="none" xmlns="http://www.w3.org/2000/svg">
<g clip-path="url(#clip0_13_39)">
<rect width="1920" height="2160" fill="white"/>
<rect width="1920" height="2160" fill="#070707"/>
<g filter="url(#filter0_f_13_39)">
<circle cx="827" cy="301" r="341" fill="url(#paint0_linear_13_39)"/>
</g>
<g filter="url(#filter1_f_13_39)">
<path d="M1720.05 336.467C1745.32 370.67 1766.02 814.746 1493.95 1015.75C1221.87 1216.76 760.047 1098.59 734.777 1064.38C709.508 1030.18 1010.46 981.932 1282.54 780.924C1554.61 579.915 1694.78 302.263 1720.05 336.467Z" fill="url(#paint1_linear_13_39)"/>
</g>
<g filter="url(#filter2_f_13_39)">
<path d="M413.099 2267.97C413.625 2225.45 665.396 1859.05 1003.64 1863.23C1341.89 1867.41 1638.53 2240.58 1638.01 2283.1C1637.48 2325.62 1368.51 2182.26 1030.26 2178.09C692.008 2173.91 412.574 2310.49 413.099 2267.97Z" fill="url(#paint2_linear_13_39)"/>
</g>
<rect width="1920" height="2160" fill="black" fill-opacity="0.6"/>
</g>
<defs>
<filter id="filter0_f_13_39" x="236" y="-290" width="1182" height="1182" filterUnits="userSpaceOnUse" color-interpolation-filters="sRGB">
<feFlood flood-opacity="0" result="BackgroundImageFix"/>
<feBlend mode="normal" in="SourceGraphic" in2="BackgroundImageFix" result="shape"/>
<feGaussianBlur stdDeviation="125" result="effect1_foregroundBlur_13_39"/>
</filter>
<filter id="filter1_f_13_39" x="483.288" y="83.5854" width="1500.59" height="1296.48" filterUnits="userSpaceOnUse" color-interpolation-filters="sRGB">
<feFlood flood-opacity="0" result="BackgroundImageFix"/>
<feBlend mode="normal" in="SourceGraphic" in2="BackgroundImageFix" result="shape"/>
<feGaussianBlur stdDeviation="125" result="effect1_foregroundBlur_13_39"/>
</filter>
<filter id="filter2_f_13_39" x="163.099" y="1613.2" width="1724.91" height="927.778" filterUnits="userSpaceOnUse" color-interpolation-filters="sRGB">
<feFlood flood-opacity="0" result="BackgroundImageFix"/>
<feBlend mode="normal" in="SourceGraphic" in2="BackgroundImageFix" result="shape"/>
<feGaussianBlur stdDeviation="125" result="effect1_foregroundBlur_13_39"/>
</filter>
<linearGradient id="paint0_linear_13_39" x1="498.179" y1="-17.0481" x2="1307.54" y2="206.4" gradientUnits="userSpaceOnUse">
<stop stop-color="#FF00D6"/>
<stop offset="1" stop-color="#FFD600"/>
</linearGradient>
<linearGradient id="paint1_linear_13_39" x1="755.994" y1="1056.29" x2="1973.59" y2="1106.95" gradientUnits="userSpaceOnUse">
<stop stop-color="#FF00D6"/>
<stop offset="1" stop-color="#FFD600"/>
</linearGradient>
<linearGradient id="paint2_linear_13_39" x1="1616.21" y1="2276.74" x2="676.507" y2="1500.8" gradientUnits="userSpaceOnUse">
<stop stop-color="#FF00D6"/>
<stop offset="1" stop-color="#FFD600"/>
</linearGradient>
<clipPath id="clip0_13_39">
<rect width="1920" height="2160" fill="white"/>
</clipPath>
</defs>
</svg>
