<svg width="750" height="73" viewBox="0 0 750 73" fill="none" xmlns="http://www.w3.org/2000/svg">
<path d="M66.7679 35.672C66.7679 46.36 64.1119 54.84 58.7999 61.112C53.1679 67.704 45.1039 71 34.6079 71H0.143869V1.88H33.2639C43.6319 1.88 51.7919 4.92 57.7439 11C63.7599 17.08 66.7679 25.304 66.7679 35.672ZM43.0559 35.768C43.0559 25.592 38.3519 20.504 28.9439 20.504H23.3759V52.28H29.5199C33.9359 52.28 37.3599 50.584 39.7919 47.192C41.9679 44.184 43.0559 40.376 43.0559 35.768ZM141.521 71H118.769L115.697 61.592H94.3851L91.3131 71H68.5611L93.7131 1.88H116.369L141.521 71ZM111.473 45.944C110.193 41.4 108.945 36.888 107.729 32.408C106.193 26.52 105.329 21.784 105.137 18.2C105.073 21.08 104.529 24.44 103.505 28.28L98.8971 45.944H111.473ZM212.736 71H189.6C188.64 68.248 188.064 65.336 187.872 62.264C187.424 56.44 187.04 53.048 186.72 52.088C185.568 48.952 182.88 47.384 178.656 47.384H169.824V71H146.784V1.88H189.216C203.424 1.88 210.528 8.344 210.528 21.272C210.528 30.488 205.792 36.024 196.32 37.88H197.088C197.792 37.816 198.688 37.912 199.776 38.168C204.384 39.192 207.424 41.848 208.896 46.136C209.6 48.312 210.048 52.6 210.24 59C210.368 62.264 211.2 66.264 212.736 71ZM187.872 25.784C187.872 21.56 185.152 19.448 179.712 19.448H169.824V31.832H178.56C181.504 31.832 183.616 31.544 184.896 30.968C186.88 30.136 187.872 28.408 187.872 25.784ZM292.287 71H266.079L250.527 42.968L243.711 49.976V71H220.479V1.88H243.807V20.696C243.807 22.616 243.295 25.112 242.271 28.184C243.423 25.368 244.671 23.192 246.015 21.656L263.679 1.88H289.023L264.351 28.76L292.287 71ZM389.019 50.648C389.019 53.912 388.315 56.952 386.907 59.768C384.667 64.184 381.307 67.256 376.827 68.984C373.307 70.328 368.667 71 362.907 71H326.619V1.88H368.859C373.211 1.88 377.147 3.64 380.667 7.16C384.187 10.68 385.947 14.648 385.947 19.064C385.947 22.648 384.795 25.912 382.491 28.856C380.187 31.736 377.275 33.464 373.755 34.04C378.107 34.552 381.723 36.376 384.603 39.512C387.547 42.648 389.019 46.36 389.019 50.648ZM365.499 24.632C365.499 20.536 363.259 18.488 358.779 18.488H349.851V30.296H358.683C363.227 30.296 365.499 28.408 365.499 24.632ZM366.843 47.864C366.843 43.832 364.347 41.816 359.355 41.816H349.659V54.584H359.547C364.411 54.584 366.843 52.344 366.843 47.864ZM461.542 46.808C461.542 55.64 458.278 62.264 451.75 66.68C446.182 70.456 438.726 72.344 429.382 72.344C419.974 72.344 412.486 70.456 406.918 66.68C400.39 62.264 397.126 55.64 397.126 46.808V1.88H420.262V44.6C420.262 51.32 423.302 54.68 429.382 54.68C435.398 54.68 438.406 51.32 438.406 44.6V1.88H461.542V46.808ZM538.76 29.048H516.392C516.456 26.104 515.56 23.608 513.704 21.56C511.848 19.448 509.48 18.392 506.6 18.392C498.536 18.392 494.504 24.632 494.504 37.112C494.504 41.72 495.304 45.592 496.904 48.728C498.952 52.824 502.024 54.872 506.12 54.872C509.448 54.872 512.136 53.752 514.184 51.512C516.04 49.4 517.032 46.648 517.16 43.256H538.568V44.408C538.632 45.24 538.568 46.296 538.376 47.576C537.224 55.896 533.608 62.232 527.528 66.584C521.896 70.552 514.728 72.536 506.024 72.536C495.144 72.536 486.568 69.56 480.296 63.608C473.832 57.528 470.6 49.08 470.6 38.264C470.6 26.616 473.736 17.432 480.008 10.712C486.344 3.928 495.272 0.535997 506.792 0.535997C515.816 0.535997 523.304 3 529.256 7.928C535.592 13.176 538.76 20.216 538.76 29.048ZM619.324 71H593.116L577.564 42.968L570.748 49.976V71H547.516V1.88H570.844V20.696C570.844 22.616 570.332 25.112 569.308 28.184C570.46 25.368 571.708 23.192 573.052 21.656L590.716 1.88H616.06L591.388 28.76L619.324 71ZM684.321 71H623.649V1.88H683.745V20.696H646.881V27.224H678.081V44.504H646.785V52.376H684.321V71ZM749.575 20.504H731.239V71H708.103V20.504H689.287V1.88H749.575V20.504Z" fill="url(#paint0_linear_13_36)"/>
<defs>
<linearGradient id="paint0_linear_13_36" x1="10.4286" y1="-17.0625" x2="241.935" y2="393.737" gradientUnits="userSpaceOnUse">
<stop stop-color="#FF00D6"/>
<stop offset="1" stop-color="#FFD600"/>
</linearGradient>
</defs>
</svg>
